<svg width="143" height="16" xmlns="http://www.w3.org/2000/svg"><path d="M142.067 3.752h-11.966c-1.149 0-2.036.236-2.036 1.165 0 .917.923 1.178 2.306 1.178h4.566c.006 0 .012.003.014.003h.966c4.107 0 7.083.807 7.083 4.912 0 3.656-2.717 4.99-5.971 4.99h-13.341v-3.836h12.448c1.146 0 2.035-.283 2.035-1.21 0-.919-.889-1.224-2.035-1.224h-4.837l-.013-.002h-.966c-4.11 0-7.08-.732-7.08-4.837 0-3.656 2.714-4.89 5.969-4.89h12.858v3.751zM21.366 11.525c0 3.008-2.16 4.47-4.468 4.475-1.48.003-2.99-.172-4.293-1.814-1.305-1.644-7.746-9.738-7.746-9.738h-.045v11.38H0V4.473C0 1.468 2.158.003 4.467 0c1.481-.003 2.989.171 4.294 1.814l7.746 9.736h.043V.17h4.816v11.354zm19.688-2.68v-1.69c0-1.946-.477-3.135-3.015-3.135h-5.64c-2.538 0-3.015 1.189-3.015 3.135v1.688c0 2.27.477 3.135 2.755 3.135H38.3c2.277 0 2.754-.866 2.754-3.135zm4.945 1.489C46 14.918 43.418 16 39.08 16h-7.721c-4.338 0-6.92-1.082-6.92-5.666v-4.67C24.438 1.08 27.02 0 31.358 0h7.722C43.418 0 46 1.08 46 5.663v4.671zm8.647 3.595C54.093 12.898 47.233.17 47.233.17h5.27l6.14 11.648L64.779.171h5.272s-6.65 12.348-7.413 13.758c-.666 1.245-1.898 2.07-3.995 2.07-2.1 0-3.329-.825-3.997-2.07zm17.8 1.899V.17h4.815v15.657h-4.816zm7.472-11.763V.17H98.27v3.894h-6.768v11.763h-4.817V4.065h-6.767zm20.937 6.183V.171h4.814V9.21c0 1.99.714 2.769 2.691 2.769h4.771c1.974 0 2.688-.78 2.688-2.77V.172h4.817v10.077c0 3.893-2.018 5.752-6.444 5.752h-6.897c-4.422 0-6.44-1.86-6.44-5.752z" fill="#00000" fill-rule="evenodd"/></svg>