<svg width="123" height="123" viewBox="0 0 123 123" fill="none" xmlns="http://www.w3.org/2000/svg">
<g id="switchMod">
<g id="moon">
<path id="mainElement" d="M105.477 97.6707C99.7282 103.419 92.7344 107.768 85.0363 110.381C77.3382 112.995 69.1421 113.802 61.0821 112.741C53.0221 111.68 45.3143 108.778 38.5548 104.262C31.7953 99.7454 26.1654 93.7345 22.1007 86.6941C18.0359 79.6537 15.6452 71.7726 15.1135 63.6604C14.5818 55.5483 15.9234 47.4226 19.0344 39.9118C22.1454 32.4011 26.9426 25.7067 33.0547 20.3466C39.1668 14.9864 46.4301 11.1041 54.2826 9C54.2826 9 43.5 42.1942 58 67.1942C72.5 92.1942 105.477 97.6707 105.477 97.6707Z" fill="#E1DFE9"/>
<path id="vector8" d="M85 73L110 58" stroke="#E1DFE9" stroke-width="3"/>
<path id="vector7" d="M97.0046 50.7865L97.6565 79.6667" stroke="#E1DFE9" stroke-width="3"/>
<path id="vector6" d="M84.6638 58.2888L110.001 72.1644" stroke="#E1DFE9" stroke-width="3"/>
<path id="vector5" d="M63 46.7942L80.4904 46.5" stroke="#E1DFE9" stroke-width="3"/>
<path id="vector4" d="M75.9358 39.0021L67.7218 54.0009" stroke="#E1DFE9" stroke-width="3"/>
<path id="vector3" d="M67.3881 39.1954L76.2705 53.8084" stroke="#E1DFE9" stroke-width="3"/>
<path id="vector2" d="M90.3948 28L94.9942 36.2369" stroke="#E1DFE9" stroke-width="3"/>
<path id="vector1" d="M88 35L97 30" stroke="#E1DFE9" stroke-width="3"/>
</g>
<g id="sun">
<path id="Ellipse 37" d="M96.0927 61.4002C96.0927 81.0149 80.1918 96.9158 60.5771 96.9158C40.9624 96.9158 25.0615 81.0149 25.0615 61.4002C25.0615 41.7855 40.9624 25.8846 60.5771 25.8846C80.1918 25.8846 96.0927 41.7855 96.0927 61.4002Z" fill="#E1DFE9"/>
<path id="vector6_2" d="M1.9997 61.7087L20.4552 61.2922" stroke="#E1DFE9" stroke-width="3"/>
<path id="vector6_3" d="M121 61.2921L102.545 61.7086" stroke="#E1DFE9" stroke-width="3"/>
<path id="vector6_4" d="M17.3222 20.3851L30.6668 33.1405" stroke="#E1DFE9" stroke-width="3"/>
<path id="vector6_5" d="M102.91 103.538L89.5657 90.7826" stroke="#E1DFE9" stroke-width="3"/>
<path id="vector6_6" d="M103.538 19.168L90.7824 32.5125" stroke="#E1DFE9" stroke-width="3"/>
<path id="vector6_7" d="M17.6174 103.833L30.3728 90.488" stroke="#E1DFE9" stroke-width="3"/>
<path id="vector6_8" d="M60.369 2.00001L60.7855 20.4555" stroke="#E1DFE9" stroke-width="3"/>
<path id="vector6_9" d="M61.0402 120.906L60.6236 102.451" stroke="#E1DFE9" stroke-width="3"/>
</g>
</g>
</svg>
