<svg width="107" height="109" viewBox="0 0 107 109" fill="none" xmlns="http://www.w3.org/2000/svg">
<g id="switchModIcon">
<path id="vector8" d="M67 60L92 45" stroke="#E1DFE9" stroke-width="3"/>
<path id="vector7" d="M79.0046 37.7865L79.6565 66.6667" stroke="#E1DFE9" stroke-width="3"/>
<path id="vector6" d="M66.6638 45.2888L92.0007 59.1644" stroke="#E1DFE9" stroke-width="3"/>
<path id="vector5" d="M45 33.7942L62.4904 33.5" stroke="#E1DFE9" stroke-width="3"/>
<path id="vector4" d="M57.9358 26.0021L49.7218 41.0009" stroke="#E1DFE9" stroke-width="3"/>
<path id="vector3" d="M49.3881 26.1954L58.2705 40.8084" stroke="#E1DFE9" stroke-width="3"/>
<path id="vector2" d="M72.3948 15L76.9942 23.2369" stroke="#E1DFE9" stroke-width="3"/>
<path id="vector1" d="M70 22L79 17" stroke="#E1DFE9" stroke-width="3"/>
<path id="mainElement" d="M106.5 64C106.5 94.6518 86.1518 108.5 55.5 108.5C24.8482 108.5 0 83.6518 0 53C0 22.3482 22.8482 0 53.5 0C13 43 55.5 102 106.5 64Z" fill="#E1DFE9"/>
</g>
</svg>
