<svg width="99" height="105" viewBox="0 0 99 105" fill="none" xmlns="http://www.w3.org/2000/svg">
<g id="testMod">
<g id="moon">
<path id="mainElement" d="M90.4767 88.6707C84.7282 94.4192 77.7344 98.7682 70.0363 101.381C62.3382 103.995 54.1421 104.802 46.0821 103.741C38.0221 102.68 30.3143 99.7785 23.5548 95.2619C16.7953 90.7454 11.1654 84.7345 7.10066 77.6941C3.03589 70.6537 0.645182 62.7726 0.113484 54.6604C-0.418213 46.5483 0.92335 38.4226 4.03439 30.9118C7.14544 23.4011 11.9426 16.7067 18.0547 11.3466C24.1668 5.98638 31.4301 2.10408 39.2826 0C39.2826 0 28.5 33.1942 43 58.1942C57.5 83.1942 90.4767 88.6707 90.4767 88.6707Z" fill="#E1DFE9"/>
</g>
<g id="sun">
<path id="Ellipse 37" d="M98.0225 52.0112C98.0225 79.0794 76.0794 101.022 49.0112 101.022C21.9431 101.022 0 79.0794 0 52.0112C0 24.9431 21.9431 3 49.0112 3C76.0794 3 98.0225 24.9431 98.0225 52.0112Z" fill="#E1DFE9"/>
</g>
</g>
</svg>
